# AST/ASF file generated using VICON BodyLanguage
# -----------------------------------------------
:version 1.10
:name VICON
:units
  mass 1.0
  length 0.45
  angle deg
:documentation
   .ast/.asf automatically generated from VICON data using
   VICON BodyBuilder and BodyLanguage model FoxedUp or BRILLIANT.MOD
:root
   order TX TY TZ RX RY RZ
   axis XYZ
   position 0 0 0  
   orientation 0 0 0 
:bonedata
  begin
     id 1 
     name lhipjoint
     direction 0.822369 -0.411937 0.392449 
     length 3.8167 
     axis 0 0 0  XYZ
  end
  begin
     id 2 
     name lfemur
     direction 0.34202 -0.939693 0  
     length 6.16791  
     axis 0 0 20  XYZ
    dof rx ry rz
    limits (-160.0 20.0)
           (-70.0 70.0)
           (-60.0 70.0)
  end
  begin
     id 3 
     name ltibia
     direction 0.34202 -0.939693 0   
     length 7.07101   
     axis 0 0 20   XYZ
    dof rx
    limits (-10.0 170.0)
  end
  begin
     id 4 
     name lfoot
     direction 0.028254 -0.0776273 0.996582   
     length 1.66799   
     axis -90 7.62852e-016 20   XYZ
    dof rx rz
    limits (-45.0 90.0)
           (-70.0 20.0)
  end
  begin
     id 5 
     name ltoes
     direction 1.53483e-011 -4.21688e-011 1   
     length 0.851674   
     axis -90 7.62852e-016 20   XYZ
    dof rx
    limits (-90.0 20.0)
  end
  begin
     id 6 
     name rhipjoint
     direction -0.822466 -0.411836 0.392353   
     length 3.81764  
     axis 0 0 0  XYZ 
  end
  begin
     id 7 
     name rfemur
     direction -0.34202 -0.939693 0   
     length 6.28636   
     axis 0 0 -20   XYZ
    dof rx ry rz
    limits (-160.0 20.0)
           (-70.0 70.0)
           (-70.0 60.0)
  end
  begin
     id 8 
     name rtibia
     direction -0.34202 -0.939693 0   
     length 6.85621   
     axis 0 0 -20   XYZ
    dof rx
    limits (-10.0 170.0)
 end
 begin
     id 9 
     name rfoot
     direction -0.0553036 -0.151945 0.98684   
     length 1.57293  
     axis -90 -7.62852e-016 -20   XYZ
    dof rx rz
    limits (-45.0 90.0)
           (-20.0 70.0)
  end
  begin
     id 10 
     name rtoes
     direction -1.53592e-011 -4.21964e-011 1   
     length 0.802812   
     axis -90 -7.62852e-016 -20   XYZ
    dof rx
    limits (-90.0 20.0)
  end
  begin
     id 11 
     name lowerback
     direction 0.00654913 0.996475 -0.0836396   
     length 1.97212   
     axis 0 0 0   XYZ
    dof rx ry rz
    limits (-20.0 45.0)
           (-30.0 30.0)
           (-30.0 30.0)
  end
  begin
     id 12 
     name upperback
     direction 0.0111875 0.994527 0.103877   
     length 1.89704   
     axis 0 0 0   XYZ
    dof rx ry rz
    limits (-20.0 45.0)
           (-30.0 30.0)
           (-30.0 30.0)
  end
  begin
     id 13 
     name thorax
     direction 0.00473652 0.989004 0.147814   
     length 1.94516   
     axis 0 0 0   XYZ
    dof rx ry rz
    limits (-20.0 45.0)
           (-30.0 30.0)
           (-30.0 30.0)
  end
  begin
     id 14 
     name lowerneck
     direction -0.00925808 0.999011 0.0434791   
     length 1.81771   
     axis 0 0 0   XYZ
    dof rx ry rz
    limits (-20.0 45.0)
           (-30.0 30.0)
           (-30.0 30.0)
  end
  begin
     id 15 
     name upperneck
     direction 0.00451595 0.964412 -0.264365   
     length 1.80434   
     axis 0 0 0   XYZ
    dof rx ry rz
    limits (-20.0 45.0)
           (-30.0 30.0)
           (-30.0 30.0)
  end
  begin
     id 16
     name head
     direction -0.00110849 0.995756 -0.0920241  
     length 1.84006  
     axis 0 0 0   XYZ
    dof rx ry rz
    limits (-20.0 45.0)
           (-30.0 30.0)
           (-30.0 30.0)
  end
  begin
     id 17 
     name lclavicle
     direction 0.921253 0.385213 0.0538957  
     length 3.67415  
     axis 0 0 0   XYZ
    dof ry rz
    limits (-20.0 10.0)
           (0.0 20.0)
  end
  begin
     id 18 
     name lhumerus
     direction 1 -4.48961e-011 6.73441e-028   
     length 4.32712   
     axis 180 -30 -90   XYZ
    dof rx ry rz
    limits (-60.0 90.0)
           (-90.0 90.0)
           (-90.0 90.0)
  end
  begin
     id 19
     name lradius
     direction 1 -4.48985e-011 -9.53507e-028   
     length 3.28587   
     axis 180 -30 -90   XYZ
    dof rx
    limits (-10.0 170.0)
  end
  begin
     id 20
     name lwrist
     direction 1 -4.48951e-011 -4.67472e-027   
     length 1.64293   
     axis 1.65735e-015 90 90   XYZ
    dof ry
    limits (-180.0 0.0)
 end
  begin
     id 21 
     name lhand
     direction 1 -4.48946e-011 -9.34945e-027   
     length 0.433158   
     axis 5.96574e-015 90 90   XYZ
    dof rx rz
    limits (-90.0 90.0)
           (-45.0 45.0)
  end
  begin
     id 22 
     name lfingers
     direction 1 -4.48882e-011 -1.86989e-026   
     length 0.349224   
     axis 1.19315e-014 90 90   XYZ
    dof rx
    limits (0.0 90.0)
  end
  begin
     id 23
     name lthumb
     direction 0.707107 -6.3493e-011 0.707107   
     length 0.501417   
     axis -90 45 2.85299e-015   XYZ
    dof rx rz
    limits (-45.0 45.0)
           (-45.0 45.0)
  end
  begin
     id 24 
     name rclavicle
     direction -0.884378 0.46502 -0.0403866   
     length 3.50218  
     axis 0 0 0   XYZ 
    dof ry rz
    limits (-10.0 20.0)
           (-20.0 0.0)
  end
  begin
     id 25 
     name rhumerus
     direction -1 -4.48964e-011 1.58188e-027  
     length 4.29104   
     axis 180 30 90   XYZ
    dof rx ry rz
    limits (-90.0 60.0)
           (-90.0 90.0)
           (-90.0 90.0)
  end
  begin
     id 26 
     name rradius
     direction -1 -4.48978e-011 -1.9722e-027   
     length 3.2272   
     axis 180 30 90   XYZ
    dof rx
    limits (-10.0 170.0)
  end
  begin
     id 27 
     name rwrist
     direction -1 -4.48969e-011 -4.67472e-027   
     length 1.6136   
     axis 1.65735e-015 -90 -90   XYZ
    dof ry
    limits (-180.0 0.0)
  end
  begin
     id 28
     name rhand
     direction -1 -4.48846e-011 -9.34945e-027   
     length 0.543623   
     axis 5.96574e-015 -90 -90   XYZ
    dof rx rz
    limits (-90.0 90.0)
           (-45.0 45.0)
  end
  begin
     id 29
     name rfingers
     direction -1 -4.49074e-011 -1.86989e-026   
     length 0.438283   
     axis 1.19315e-014 -90 -90   XYZ
    dof rx
    limits (0.0 90.0)
  end
  begin
     id 30
     name rthumb
     direction -0.707107 -6.34834e-011 0.707107   
     length 0.629289   
     axis -90 -45 -2.85299e-015   XYZ
    dof rx rz
    limits (-45.0 45.0)
           (-45.0 45.0)
  end
:hierarchy
  begin
    root lhipjoint rhipjoint lowerback
    lhipjoint lfemur
    lfemur ltibia
    ltibia lfoot
    lfoot ltoes
    rhipjoint rfemur
    rfemur rtibia
    rtibia rfoot
    rfoot rtoes
    lowerback upperback
    upperback thorax
    thorax lowerneck lclavicle rclavicle
    lowerneck upperneck
    upperneck head
    lclavicle lhumerus
    lhumerus lradius
    lradius lwrist
    lwrist lhand lthumb
    lhand lfingers
    rclavicle rhumerus
    rhumerus rradius
    rradius rwrist
    rwrist rhand rthumb
    rhand rfingers
  end

#!OML:ASF H:\GeneralSubjects\Female5\Project 1\Capture day 1\Session 1\Female5.ASF
:FULLY-SPECIFIED
:DEGREES
150
root 28.1938 15.3515 0.745711 418.926 80.0458 408.809
lowerback 7.59868 -2.16813 -7.59768
upperback -13.6824 -3.15798 4.06056
thorax -19.6394 0.411761 9.78834
lowerneck -14.1621 -5.84335 -6.06569
upperneck 28.5765 -6.34802 0.0100224
head 11.935 -3.31872 0.155444
rclavicle 5.4467e-014 -6.99722e-014
rhumerus -61.6111 19.5322 -77.6018
rradius 32.4313
rwrist -12.3836
rhand -18.585 -21.0415
rfingers 7.12502
rthumb 7.70574 -50.8811
lclavicle 5.4467e-014 -6.99722e-014
lhumerus -52.5843 2.67263 94.3539
lradius 29.895
lwrist -16.3073
lhand -21.8899 31.8854
lfingers 7.12502
lthumb 4.51511 61.8173
rfemur -23.8101 11.0535 22.5968
rtibia -0.313952
rfoot -40.154 -41.3276
rtoes 28.9037
lfemur 5.23945 -2.0104 -37.8629
ltibia 21.2814
lfoot -16.6113 6.93245
ltoes -72.989
151
root 28.3794 15.4086 0.821595 414.477 79.4997 404.567
lowerback 8.30862 -2.10337 -7.64442
upperback -13.9668 -3.11447 4.31321
thorax -19.9037 0.486905 10.1132
lowerneck -14.2499 -6.09578 -6.60527
upperneck 28.2301 -6.76012 0.59492
head 11.8797 -3.49534 0.398207
rclavicle -9.54166e-015 5.40694e-014
rhumerus -61.4019 19.6746 -77.5137
rradius 32.6171
rwrist -13.2059
rhand -18.9303 -20.7712
rfingers 7.12502
rthumb 7.3724 -50.6228
lclavicle -9.54166e-015 5.40694e-014
lhumerus -52.9564 3.84625 93.2994
lradius 28.2259
lwrist -17.7396
lhand -20.782 31.8577
lfingers 7.12502
lthumb 5.58479 61.7641
rfemur -22.9529 13.8899 22.3583
rtibia -0.455147
rfoot -40.3981 -43.5565
rtoes 26.9555
lfemur 3.80801 0.673127 -36.2034
ltibia 25.0803
lfoot -13.191 5.64641
ltoes -73.8378
152
root 28.5715 15.4658 0.906054 411.055 78.8735 401.317
lowerback 8.69603 -2.08069 -7.95561
upperback -13.9675 -3.143 4.54527
thorax -20.1432 0.57114 10.6151
lowerneck -14.1913 -6.1139 -6.5231
upperneck 27.7902 -6.79897 0.490872
head 11.6892 -3.52608 0.346147
rclavicle 3.1408e-014 -6.20208e-014
rhumerus -61.36 20.2848 -77.9706
rradius 32.9644
rwrist -14.6105
rhand -19.4972 -19.9605
rfingers 7.12502
rthumb 6.82517 -49.8304
lclavicle 3.1408e-014 -6.20208e-014
lhumerus -53.2925 4.98687 92.1474
lradius 26.746
lwrist -19.4584
lhand -19.9787 31.5866
lfingers 7.12502
lthumb 6.36036 61.4711
rfemur -21.6528 16.745 22.2375
rtibia -1.08121
rfoot -43.4343 -43.1776
rtoes 29.1544
lfemur 2.2842 2.95385 -34.6682
ltibia 29.0126
lfoot -8.27104 5.01467
ltoes -74.1181
153
root 28.8647 15.4973 1.01876 411.647 78.1846 402.878
lowerback 8.29497 -2.2855 -8.92649
upperback -13.6202 -3.60891 4.53551
thorax -19.237 0.392714 11.203
lowerneck -14.1685 -6.25338 -6.76374
upperneck 27.4647 -7.03571 0.772473
head 11.5908 -3.62939 0.45663
rclavicle 1.86858e-014 -1.90833e-014
rhumerus -61.4996 20.9324 -78.6113
rradius 33.5066
rwrist -15.6287
rhand -19.3405 -19.6161
rfingers 7.12502
rthumb 6.97652 -49.4812
lclavicle 1.86858e-014 -1.90833e-014
lhumerus -53.6068 6.28862 90.574
lradius 25.4514
lwrist -21.7889
lhand -19.1169 31.2035
lfingers 7.12502
lthumb 7.1923 61.0613
rfemur -17.9774 16.9456 22.698
rtibia -3.26733
rfoot -42.0221 -43.6546
rtoes 27.8623
lfemur 2.40715 4.76978 -33.9154
ltibia 32.0492
lfoot -3.97567 2.79334
ltoes -74.5014
154
root 29.0509 15.5383 1.11357 409.879 77.5073 401.376
lowerback 8.54498 -2.30831 -9.38481
upperback -13.6221 -3.75645 4.5725
thorax -19.3427 0.407368 11.5724
lowerneck -14.1042 -6.23179 -6.5477
upperneck 27.2021 -6.99568 0.492387
head 11.4532 -3.63011 0.329442
rclavicle -5.96354e-015 -4.77083e-014
rhumerus -61.6147 21.2597 -79.0142
rradius 34.2299
rwrist -15.6859
rhand -18.2415 -19.0524
rfingers 7.12502
rthumb 8.03723 -48.8796
lclavicle -5.96354e-015 -4.77083e-014
lhumerus -53.8013 7.6346 88.7202
lradius 24.2733
lwrist -24.2251
lhand -18.5593 30.8805
lfingers 7.12502
lthumb 7.7305 60.7192
rfemur -16.6051 17.7177 23.0194
rtibia -3.71156
rfoot -42.1936 -42.8221
rtoes 28.9095
lfemur 0.76782 6.16905 -32.8167
ltibia 35.9122
lfoot -1.47909 1.27225
ltoes -74.7783
155
root 29.2392 15.5728 1.20954 408.024 76.9037 399.747
lowerback 8.61892 -2.35806 -9.69705
upperback -13.631 -3.89811 4.59312
thorax -19.3453 0.391109 11.8189
lowerneck -13.9603 -6.25593 -6.58778
upperneck 26.9379 -7.05714 0.552643
head 11.3299 -3.66032 0.356135
rclavicle -4.92986e-014 3.65764e-014
rhumerus -61.7027 21.6625 -79.5509
rradius 34.8854
rwrist -15.7407
rhand -17.1953 -17.9949
rfingers 7.12502
rthumb 9.04691 -47.7809
lclavicle -4.92986e-014 3.65764e-014
lhumerus -53.8317 8.53502 87.0912
lradius 23.1924
lwrist -26.0043
lhand -18.7074 30.8065
lfingers 7.12502
lthumb 7.58757 60.6504
rfemur -15.5123 15.9852 24.0649
rtibia -3.64833
rfoot -38.7147 -41.743
rtoes 26.8184
lfemur -0.836685 7.37673 -31.7731
ltibia 39.4723
lfoot -0.881589 1.95812
ltoes -74.5984
